<mxfile host="app.diagrams.net" modified="2020-09-29T20:48:22.139Z" agent="5.0 (Macintosh)" etag="xs5m9T6sigQ3UEczXJCD" version="13.7.6" type="github">
  <diagram id="nP4e0wWjYFi-qGmSvCJ1" name="Page-1">
    <mxGraphModel dx="914" dy="827" grid="1" gridSize="10" guides="1" tooltips="1" connect="1" arrows="1" fold="1" page="1" pageScale="1" pageWidth="827" pageHeight="1169" math="0" shadow="0">
      <root>
        <mxCell id="0" />
        <mxCell id="1" parent="0" />
        <mxCell id="vf_FHtImUIUmnImsqS4j-35" value="" style="group" vertex="1" connectable="0" parent="1">
          <mxGeometry x="40" y="40" width="509" height="60" as="geometry" />
        </mxCell>
        <mxCell id="vf_FHtImUIUmnImsqS4j-27" value="" style="group" vertex="1" connectable="0" parent="vf_FHtImUIUmnImsqS4j-35">
          <mxGeometry x="420" width="89" height="60" as="geometry" />
        </mxCell>
        <mxCell id="vf_FHtImUIUmnImsqS4j-13" value="" style="group;fillColor=#d5e8d4;strokeColor=#82b366;" vertex="1" connectable="0" parent="vf_FHtImUIUmnImsqS4j-27">
          <mxGeometry width="89" height="40" as="geometry" />
        </mxCell>
        <mxCell id="vf_FHtImUIUmnImsqS4j-25" value="" style="group" vertex="1" connectable="0" parent="vf_FHtImUIUmnImsqS4j-13">
          <mxGeometry x="49" width="40" height="40" as="geometry" />
        </mxCell>
        <mxCell id="vf_FHtImUIUmnImsqS4j-10" value="" style="shape=lineEllipse;line=vertical;perimeter=ellipsePerimeter;whiteSpace=wrap;html=1;backgroundOutline=1;" vertex="1" parent="vf_FHtImUIUmnImsqS4j-25">
          <mxGeometry width="40" height="40" as="geometry" />
        </mxCell>
        <mxCell id="vf_FHtImUIUmnImsqS4j-26" value="" style="group" vertex="1" connectable="0" parent="vf_FHtImUIUmnImsqS4j-13">
          <mxGeometry width="40" height="40" as="geometry" />
        </mxCell>
        <mxCell id="vf_FHtImUIUmnImsqS4j-9" value="" style="shape=lineEllipse;line=vertical;perimeter=ellipsePerimeter;whiteSpace=wrap;html=1;backgroundOutline=1;" vertex="1" parent="vf_FHtImUIUmnImsqS4j-26">
          <mxGeometry width="40" height="40" as="geometry" />
        </mxCell>
        <mxCell id="vf_FHtImUIUmnImsqS4j-23" value="L" style="text;html=1;resizable=0;autosize=1;align=center;verticalAlign=middle;points=[];fillColor=none;strokeColor=none;rounded=0;fontFamily=Courier New;fontStyle=1;fontSize=14;" vertex="1" parent="vf_FHtImUIUmnImsqS4j-27">
          <mxGeometry x="10" y="40" width="20" height="20" as="geometry" />
        </mxCell>
        <mxCell id="vf_FHtImUIUmnImsqS4j-24" value="R" style="text;html=1;resizable=0;autosize=1;align=center;verticalAlign=middle;points=[];fillColor=none;strokeColor=none;rounded=0;fontFamily=Courier New;fontStyle=1;fontSize=14;" vertex="1" parent="vf_FHtImUIUmnImsqS4j-27">
          <mxGeometry x="60" y="40" width="20" height="20" as="geometry" />
        </mxCell>
        <mxCell id="vf_FHtImUIUmnImsqS4j-28" value="" style="group" vertex="1" connectable="0" parent="vf_FHtImUIUmnImsqS4j-35">
          <mxGeometry x="355" width="50" height="60" as="geometry" />
        </mxCell>
        <mxCell id="vf_FHtImUIUmnImsqS4j-12" value="" style="shape=lineEllipse;perimeter=ellipsePerimeter;whiteSpace=wrap;html=1;backgroundOutline=1;" vertex="1" parent="vf_FHtImUIUmnImsqS4j-28">
          <mxGeometry x="5" width="40" height="40" as="geometry" />
        </mxCell>
        <mxCell id="vf_FHtImUIUmnImsqS4j-22" value="Send" style="text;html=1;resizable=0;autosize=1;align=center;verticalAlign=middle;points=[];fillColor=none;strokeColor=none;rounded=0;fontFamily=Courier New;fontStyle=1;fontSize=14;" vertex="1" parent="vf_FHtImUIUmnImsqS4j-28">
          <mxGeometry y="40" width="50" height="20" as="geometry" />
        </mxCell>
        <mxCell id="vf_FHtImUIUmnImsqS4j-29" value="" style="group" vertex="1" connectable="0" parent="vf_FHtImUIUmnImsqS4j-35">
          <mxGeometry x="295" width="50" height="60" as="geometry" />
        </mxCell>
        <mxCell id="vf_FHtImUIUmnImsqS4j-7" value="" style="shape=orEllipse;perimeter=ellipsePerimeter;whiteSpace=wrap;html=1;backgroundOutline=1;" vertex="1" parent="vf_FHtImUIUmnImsqS4j-29">
          <mxGeometry x="5" width="40" height="40" as="geometry" />
        </mxCell>
        <mxCell id="vf_FHtImUIUmnImsqS4j-21" value="9/10" style="text;html=1;resizable=0;autosize=1;align=center;verticalAlign=middle;points=[];fillColor=none;strokeColor=none;rounded=0;fontFamily=Courier New;fontStyle=1;fontSize=14;" vertex="1" parent="vf_FHtImUIUmnImsqS4j-29">
          <mxGeometry y="40" width="50" height="20" as="geometry" />
        </mxCell>
        <mxCell id="vf_FHtImUIUmnImsqS4j-30" value="" style="group" vertex="1" connectable="0" parent="vf_FHtImUIUmnImsqS4j-35">
          <mxGeometry x="240" width="40" height="60" as="geometry" />
        </mxCell>
        <mxCell id="vf_FHtImUIUmnImsqS4j-6" value="" style="shape=orEllipse;perimeter=ellipsePerimeter;whiteSpace=wrap;html=1;backgroundOutline=1;" vertex="1" parent="vf_FHtImUIUmnImsqS4j-30">
          <mxGeometry width="40" height="40" as="geometry" />
        </mxCell>
        <mxCell id="vf_FHtImUIUmnImsqS4j-20" value="7/8" style="text;html=1;resizable=0;autosize=1;align=center;verticalAlign=middle;points=[];fillColor=none;strokeColor=none;rounded=0;fontFamily=Courier New;fontStyle=1;fontSize=14;" vertex="1" parent="vf_FHtImUIUmnImsqS4j-30">
          <mxGeometry y="40" width="40" height="20" as="geometry" />
        </mxCell>
        <mxCell id="vf_FHtImUIUmnImsqS4j-31" value="" style="group" vertex="1" connectable="0" parent="vf_FHtImUIUmnImsqS4j-35">
          <mxGeometry x="180" width="40" height="60" as="geometry" />
        </mxCell>
        <mxCell id="vf_FHtImUIUmnImsqS4j-5" value="" style="shape=orEllipse;perimeter=ellipsePerimeter;whiteSpace=wrap;html=1;backgroundOutline=1;" vertex="1" parent="vf_FHtImUIUmnImsqS4j-31">
          <mxGeometry width="40" height="40" as="geometry" />
        </mxCell>
        <mxCell id="vf_FHtImUIUmnImsqS4j-19" value="5/6" style="text;html=1;resizable=0;autosize=1;align=center;verticalAlign=middle;points=[];fillColor=none;strokeColor=none;rounded=0;fontFamily=Courier New;fontStyle=1;fontSize=14;" vertex="1" parent="vf_FHtImUIUmnImsqS4j-31">
          <mxGeometry y="40" width="40" height="20" as="geometry" />
        </mxCell>
        <mxCell id="vf_FHtImUIUmnImsqS4j-32" value="" style="group" vertex="1" connectable="0" parent="vf_FHtImUIUmnImsqS4j-35">
          <mxGeometry x="120" width="40" height="60" as="geometry" />
        </mxCell>
        <mxCell id="vf_FHtImUIUmnImsqS4j-4" value="" style="shape=orEllipse;perimeter=ellipsePerimeter;whiteSpace=wrap;html=1;backgroundOutline=1;" vertex="1" parent="vf_FHtImUIUmnImsqS4j-32">
          <mxGeometry width="40" height="40" as="geometry" />
        </mxCell>
        <mxCell id="vf_FHtImUIUmnImsqS4j-18" value="3/4" style="text;html=1;resizable=0;autosize=1;align=center;verticalAlign=middle;points=[];fillColor=none;strokeColor=none;rounded=0;fontFamily=Courier New;fontStyle=1;fontSize=14;" vertex="1" parent="vf_FHtImUIUmnImsqS4j-32">
          <mxGeometry y="40" width="40" height="20" as="geometry" />
        </mxCell>
        <mxCell id="vf_FHtImUIUmnImsqS4j-33" value="" style="group" vertex="1" connectable="0" parent="vf_FHtImUIUmnImsqS4j-35">
          <mxGeometry x="60" width="40" height="60" as="geometry" />
        </mxCell>
        <mxCell id="vf_FHtImUIUmnImsqS4j-3" value="" style="shape=lineEllipse;line=vertical;perimeter=ellipsePerimeter;whiteSpace=wrap;html=1;backgroundOutline=1;" vertex="1" parent="vf_FHtImUIUmnImsqS4j-33">
          <mxGeometry width="40" height="40" as="geometry" />
        </mxCell>
        <mxCell id="vf_FHtImUIUmnImsqS4j-17" value="2" style="text;html=1;resizable=0;autosize=1;align=center;verticalAlign=middle;points=[];fillColor=none;strokeColor=none;rounded=0;fontFamily=Courier New;fontStyle=1;fontSize=14;" vertex="1" parent="vf_FHtImUIUmnImsqS4j-33">
          <mxGeometry x="10" y="40" width="20" height="20" as="geometry" />
        </mxCell>
        <mxCell id="vf_FHtImUIUmnImsqS4j-34" value="" style="group" vertex="1" connectable="0" parent="vf_FHtImUIUmnImsqS4j-35">
          <mxGeometry width="40" height="60" as="geometry" />
        </mxCell>
        <mxCell id="vf_FHtImUIUmnImsqS4j-1" value="" style="shape=lineEllipse;line=vertical;perimeter=ellipsePerimeter;whiteSpace=wrap;html=1;backgroundOutline=1;" vertex="1" parent="vf_FHtImUIUmnImsqS4j-34">
          <mxGeometry width="40" height="40" as="geometry" />
        </mxCell>
        <mxCell id="vf_FHtImUIUmnImsqS4j-16" value="&lt;div style=&quot;font-size: 14px;&quot; align=&quot;center&quot;&gt;1&lt;/div&gt;" style="text;html=1;resizable=0;autosize=1;align=center;verticalAlign=middle;points=[];fillColor=none;strokeColor=none;rounded=0;fontFamily=Courier New;fontStyle=1;fontSize=14;" vertex="1" parent="vf_FHtImUIUmnImsqS4j-34">
          <mxGeometry x="10" y="40" width="20" height="20" as="geometry" />
        </mxCell>
      </root>
    </mxGraphModel>
  </diagram>
</mxfile>
